<?xml version="1.0" encoding="utf-8"?>
<!-- Generator: Adobe Illustrator 16.0.4, SVG Export Plug-In . SVG Version: 6.00 Build 0)  -->
<!DOCTYPE svg PUBLIC "-//W3C//DTD SVG 1.1//EN" "http://www.w3.org/Graphics/SVG/1.1/DTD/svg11.dtd">
<svg version="1.1" id="Layer_1" xmlns="http://www.w3.org/2000/svg" xmlns:xlink="http://www.w3.org/1999/xlink" x="0px" y="0px"
	 width="843.051px" height="742.557px" viewBox="0 0 843.051 742.557" enable-background="new 0 0 843.051 742.557"
	 xml:space="preserve">
<path fill="#CD2027" d="M100.55,723.158c0-10.656,8.645-19.306,19.305-19.306c44.798,0,81.245-36.443,81.245-81.244V19.306
	C201.1,8.647,209.744,0,220.406,0h603.299c10.662,0,19.307,8.647,19.307,19.306v603.302c0,66.09-53.77,119.856-119.854,119.856
	H119.855C109.195,742.465,100.55,733.824,100.55,723.158z M239.711,38.612v583.997c0,31.32-12.075,59.869-31.814,81.244h515.26
	c44.796,0,81.243-36.443,81.243-81.244V38.612H239.711z"/>
<path fill="#CD2027" d="M119.855,742.465c66.09,0,119.856-53.767,119.856-119.856V19.306C239.711,8.647,231.067,0,220.406,0
	S201.1,8.647,201.1,19.306v603.302c0,44.801-36.446,81.244-81.245,81.244c-44.798,0-81.244-36.443-81.244-81.244V19.306
	C38.612,8.647,29.967,0,19.306,0S0,8.647,0,19.306v603.302C0,688.698,53.766,742.465,119.855,742.465z"/>
<path fill="#CD2027" d="M119.855,653.979c10.661,0,19.306-8.645,19.306-19.307V19.306C139.161,8.647,130.517,0,119.855,0
	c-10.661,0-19.305,8.647-19.305,19.306v615.367C100.55,645.335,109.195,653.979,119.855,653.979z"/>
<path fill="#CD2027" d="M293.207,320.253V116.337c0-10.661,8.644-19.306,19.306-19.306h203.916c10.662,0,19.305,8.645,19.305,19.306
	v203.917c0,10.661-8.643,19.306-19.305,19.306H312.513C301.851,339.559,293.207,330.915,293.207,320.253z M497.122,135.644H331.818
	v165.304h165.304V135.644z"/>
<path fill="#CD2027" d="M611.804,135.644h124.202c10.658,0,19.307-8.645,19.307-19.307c0-10.661-8.648-19.306-19.307-19.306H611.804
	c-10.66,0-19.307,8.645-19.307,19.306C592.497,127,601.144,135.644,611.804,135.644z"/>
<path fill="#CD2027" d="M611.804,237.602h124.202c10.658,0,19.307-8.645,19.307-19.307c0-10.661-8.648-19.305-19.307-19.305H611.804
	c-10.66,0-19.307,8.644-19.307,19.305C592.497,228.957,601.144,237.602,611.804,237.602z"/>
<path fill="#CD2027" d="M611.804,339.559h124.202c10.658,0,19.307-8.645,19.307-19.306c0-10.662-8.648-19.306-19.307-19.306H611.804
	c-10.66,0-19.307,8.644-19.307,19.306C592.497,330.915,601.144,339.559,611.804,339.559z"/>
<path fill="#CD2027" d="M307.741,441.517h428.63c10.662,0,19.305-8.644,19.305-19.304c0-10.662-8.643-19.306-19.305-19.306h-428.63
	c-10.662,0-19.306,8.644-19.306,19.306C288.436,432.873,297.079,441.517,307.741,441.517z"/>
<path fill="#CD2027" d="M307.741,543.474h428.63c10.662,0,19.305-8.643,19.305-19.305s-8.643-19.305-19.305-19.305h-428.63
	c-10.662,0-19.306,8.643-19.306,19.305S297.079,543.474,307.741,543.474z"/>
<path fill="#CD2027" d="M307.741,645.433h428.63c10.662,0,19.305-8.645,19.305-19.305c0-10.664-8.643-19.309-19.305-19.309h-428.63
	c-10.662,0-19.306,8.645-19.306,19.309C288.436,636.788,297.079,645.433,307.741,645.433z"/>
<rect x="313.717" y="112.214" fill="#CD2027" width="205.927" height="213.971"/>
</svg>
