<?xml version="1.0" encoding="utf-8"?>
<!-- Generator: Adobe Illustrator 15.0.0, SVG Export Plug-In . SVG Version: 6.00 Build 0)  -->
<!DOCTYPE svg PUBLIC "-//W3C//DTD SVG 1.1//EN" "http://www.w3.org/Graphics/SVG/1.1/DTD/svg11.dtd">
<svg version="1.1" id="Capa_1" xmlns="http://www.w3.org/2000/svg" xmlns:xlink="http://www.w3.org/1999/xlink" x="0px" y="0px"
	 width="595.279px" height="465.859px" viewBox="0 188.015 595.279 465.859" enable-background="new 0 188.015 595.279 465.859"
	 xml:space="preserve">
<g>
	<path d="M583.705,473.424c-7.355-4.06-16.688-3.167-25.608,2.448L393.322,579.631c-4.586,2.889-5.962,8.946-3.075,13.532
		c2.89,4.585,8.946,5.962,13.532,3.074l164.775-103.76c3.48-2.19,5.385-2.03,5.666-1.873c0.285,0.157,1.435,1.682,1.435,5.793
		c0,11.054-8.205,25.916-17.558,31.806L398.356,628.792c-8.493,5.348-16.258,6.818-21.305,4.034
		c-5.045-2.785-7.938-10.139-7.938-20.178c0-25.431,18.181-58.362,39.7-71.913l181.884-114.53c2.853-1.796,4.582-4.933,4.582-8.304
		s-1.73-6.508-4.582-8.304l-349.49-220.073c-3.194-2.012-7.262-2.012-10.457,0L46.654,305.45C20.493,321.924,0,359.044,0,389.959
		v5.233c0,30.916,20.493,68.037,46.653,84.509l273.815,172.421c4.586,2.888,10.645,1.51,13.531-3.074
		c2.888-4.585,1.512-10.645-3.074-13.531L57.111,463.095c-20.32-12.794-37.486-43.891-37.486-67.903v-5.233
		c0-24.013,17.166-55.108,37.486-67.903l178.868-112.632L567.054,417.9L398.357,524.128c-27.402,17.255-48.867,56.138-48.867,88.521
		c0,17.655,6.42,30.923,18.078,37.358c4.683,2.585,9.846,3.867,15.318,3.867c8.152,0,16.988-2.847,25.927-8.477L568.554,544.81
		c14.986-9.437,26.725-30.701,26.725-48.412C595.279,485.858,591.061,477.485,583.705,473.424z"/>
	<path d="M462.697,427.714c3.26,0,6.447-1.624,8.313-4.585c2.888-4.585,1.511-10.644-3.074-13.531L241.207,266.829
		c-4.587-2.887-10.644-1.51-13.531,3.075c-2.888,4.585-1.512,10.644,3.074,13.532l226.728,142.769
		C459.101,427.226,460.909,427.714,462.697,427.714z"/>
	<path d="M423.468,453.754c3.268,0,6.461-1.63,8.322-4.602c2.88-4.591,1.491-10.646-3.101-13.525l-95.781-60.057
		c-4.594-2.881-10.648-1.49-13.525,3.101c-2.88,4.592-1.491,10.647,3.101,13.525l95.781,60.057
		C419.885,453.27,421.687,453.754,423.468,453.754z"/>
	<path d="M292.931,401.395c-4.596-2.87-10.649-1.471-13.52,3.127c-2.871,4.598-1.471,10.649,3.126,13.52l96.517,60.263
		c1.617,1.009,3.412,1.49,5.188,1.49c3.272,0,6.473-1.637,8.333-4.617c2.87-4.597,1.471-10.649-3.127-13.52L292.931,401.395z"/>
	<path d="M189.976,292.507l-81.546,51.355c-2.861,1.802-4.594,4.949-4.583,8.331c0.011,3.382,1.76,6.52,4.632,8.305l97.252,60.468
		c1.587,0.986,3.383,1.479,5.181,1.479c1.854,0,3.706-0.524,5.326-1.571l21.66-13.999c4.552-2.942,5.855-9.015,2.915-13.566
		c-2.941-4.552-9.016-5.855-13.567-2.915l-16.435,10.622l-78.653-48.904l63.06-39.713l77.509,48.599l-9.036,5.84
		c-4.552,2.942-5.856,9.015-2.915,13.567c2.942,4.551,9.02,5.856,13.566,2.915l21.979-14.207c2.817-1.821,4.509-4.955,4.486-8.309
		c-0.023-3.353-1.759-6.463-4.6-8.245l-95.791-60.063C197.224,290.495,193.165,290.499,189.976,292.507z"/>
	<path d="M353.356,501.2c2.861-4.603,1.451-10.652-3.152-13.513l-97.254-60.471c-4.603-2.863-10.653-1.451-13.514,3.151
		c-2.861,4.603-1.45,10.652,3.152,13.514l97.254,60.47c1.612,1.004,3.403,1.481,5.172,1.481
		C348.292,505.833,351.498,504.189,353.356,501.2z"/>
	<path d="M70.029,375.628c-2.86,4.603-1.45,10.652,3.152,13.513l240.043,149.251c1.611,1.004,3.402,1.48,5.172,1.48
		c3.278,0,6.483-1.643,8.341-4.632c2.861-4.603,1.451-10.652-3.151-13.514L83.542,372.476
		C78.94,369.612,72.89,371.025,70.029,375.628z"/>
</g>
</svg>
